<mxfile host="app.diagrams.net" modified="2021-02-04T01:43:52.299Z" agent="5.0 (Windows NT 10.0; Win64; x64) AppleWebKit/537.36 (KHTML, like Gecko) Chrome/88.0.4324.104 Safari/537.36" etag="HZG7PRebM54nvgpXuj24" version="14.2.9" type="github">
  <diagram id="C5RBs43oDa-KdzZeNtuy" name="Page-1">
    <mxGraphModel dx="2062" dy="762" grid="1" gridSize="10" guides="1" tooltips="1" connect="1" arrows="1" fold="1" page="1" pageScale="1" pageWidth="827" pageHeight="1169" math="0" shadow="0">
      <root>
        <mxCell id="WIyWlLk6GJQsqaUBKTNV-0" />
        <mxCell id="WIyWlLk6GJQsqaUBKTNV-1" parent="WIyWlLk6GJQsqaUBKTNV-0" />
        <mxCell id="h7RwOAsTjaa8qnjNU2vm-1" style="edgeStyle=orthogonalEdgeStyle;orthogonalLoop=1;jettySize=auto;html=1;entryX=0.5;entryY=1;entryDx=0;entryDy=0;rounded=1;" edge="1" parent="WIyWlLk6GJQsqaUBKTNV-1" source="h7RwOAsTjaa8qnjNU2vm-0" target="h7RwOAsTjaa8qnjNU2vm-8">
          <mxGeometry relative="1" as="geometry">
            <mxPoint x="190" y="300" as="targetPoint" />
          </mxGeometry>
        </mxCell>
        <mxCell id="h7RwOAsTjaa8qnjNU2vm-4" style="edgeStyle=orthogonalEdgeStyle;rounded=1;orthogonalLoop=1;jettySize=auto;html=1;entryX=0;entryY=0.5;entryDx=0;entryDy=0;" edge="1" parent="WIyWlLk6GJQsqaUBKTNV-1" source="h7RwOAsTjaa8qnjNU2vm-0" target="h7RwOAsTjaa8qnjNU2vm-3">
          <mxGeometry relative="1" as="geometry" />
        </mxCell>
        <mxCell id="h7RwOAsTjaa8qnjNU2vm-0" value="&lt;b&gt;定义&lt;/b&gt;" style="rounded=1;whiteSpace=wrap;html=1;" vertex="1" parent="WIyWlLk6GJQsqaUBKTNV-1">
          <mxGeometry x="100" y="320" width="120" height="50" as="geometry" />
        </mxCell>
        <mxCell id="h7RwOAsTjaa8qnjNU2vm-5" style="edgeStyle=orthogonalEdgeStyle;rounded=1;orthogonalLoop=1;jettySize=auto;html=1;entryX=0.5;entryY=0;entryDx=0;entryDy=0;" edge="1" parent="WIyWlLk6GJQsqaUBKTNV-1" source="h7RwOAsTjaa8qnjNU2vm-2" target="h7RwOAsTjaa8qnjNU2vm-6">
          <mxGeometry relative="1" as="geometry">
            <mxPoint x="480" y="290" as="targetPoint" />
          </mxGeometry>
        </mxCell>
        <mxCell id="h7RwOAsTjaa8qnjNU2vm-2" value="&lt;b&gt;静态属性&lt;/b&gt;" style="rounded=1;whiteSpace=wrap;html=1;" vertex="1" parent="WIyWlLk6GJQsqaUBKTNV-1">
          <mxGeometry x="420" y="170" width="120" height="60" as="geometry" />
        </mxCell>
        <mxCell id="h7RwOAsTjaa8qnjNU2vm-3" value="&lt;b&gt;动态属性&lt;/b&gt;" style="rounded=1;whiteSpace=wrap;html=1;" vertex="1" parent="WIyWlLk6GJQsqaUBKTNV-1">
          <mxGeometry x="420" y="400" width="120" height="60" as="geometry" />
        </mxCell>
        <mxCell id="h7RwOAsTjaa8qnjNU2vm-7" style="edgeStyle=orthogonalEdgeStyle;rounded=1;orthogonalLoop=1;jettySize=auto;html=1;entryX=0.5;entryY=0;entryDx=0;entryDy=0;" edge="1" parent="WIyWlLk6GJQsqaUBKTNV-1" source="h7RwOAsTjaa8qnjNU2vm-6" target="h7RwOAsTjaa8qnjNU2vm-3">
          <mxGeometry relative="1" as="geometry" />
        </mxCell>
        <mxCell id="h7RwOAsTjaa8qnjNU2vm-6" value="&lt;b&gt;环境——时间-空间&lt;br&gt;驱动因素&lt;br&gt;&lt;/b&gt;" style="rounded=1;whiteSpace=wrap;html=1;" vertex="1" parent="WIyWlLk6GJQsqaUBKTNV-1">
          <mxGeometry x="420" y="290" width="120" height="30" as="geometry" />
        </mxCell>
        <mxCell id="h7RwOAsTjaa8qnjNU2vm-9" style="edgeStyle=orthogonalEdgeStyle;rounded=1;orthogonalLoop=1;jettySize=auto;html=1;entryX=0;entryY=0.5;entryDx=0;entryDy=0;" edge="1" parent="WIyWlLk6GJQsqaUBKTNV-1" source="h7RwOAsTjaa8qnjNU2vm-8" target="h7RwOAsTjaa8qnjNU2vm-2">
          <mxGeometry relative="1" as="geometry" />
        </mxCell>
        <mxCell id="h7RwOAsTjaa8qnjNU2vm-8" value="&lt;b&gt;横向实体 Active&lt;/b&gt;" style="rounded=1;whiteSpace=wrap;html=1;" vertex="1" parent="WIyWlLk6GJQsqaUBKTNV-1">
          <mxGeometry x="260" y="240" width="120" height="30" as="geometry" />
        </mxCell>
      </root>
    </mxGraphModel>
  </diagram>
</mxfile>
